<svg xmlns="http://www.w3.org/2000/svg" xmlns:xlink="http://www.w3.org/1999/xlink" version="1.1" id="Layer_1" x="0px" y="0px" viewBox="0 0 595.3 582.4" style="enable-background:new 0 0 595.3 582.4;" xml:space="preserve">
<style xmlns="http://www.w3.org/2000/svg" type="text/css">
	.st0{opacity:0.5;fill:#CCE7F9;}
	.st1{fill:#01384F;}
	.st2{fill:#FACBB6;}
	.st3{fill:#003340;}
	.st4{fill:#EEC0AE;}
	.st5{fill:#8fbc8f;}
	.st6{fill:#FCD286;}
	.st7{fill:#F9B751;}
	.st8{fill:#F6B69A;}
	.st9{fill:none;stroke:#FFEBD4;stroke-width:0.1;stroke-miterlimit:10;}
	.st10{fill:#004970;}
	.st11{fill:#074559;}
	.st12{fill:#EDBFAE;}
	.st13{fill:#9ED7EF;}
	.st14{fill:#FED17A;}
	.st15{fill:#D9D9D9;}
	.st16{fill:#C6C6C5;}
	.st17{fill:#2A94F4;}
	.st18{fill:#23557D;}
</style>
<path xmlns="http://www.w3.org/2000/svg" class="st0" d="M93.4,105.2C138.8,43.5,226,20.3,300.8,59.3c40.9,21.3,69,61,110.7,81.4c47,22.8,100.2,42.1,133.4,84.6  c35.3,45.2,42.7,109.2,20.8,161.9c-26.8,64.1-97.3,74-159.3,96.1c-253.8,90.4-504.1-8.6-342.1-305.1  C77.7,153.5,78.5,125.7,93.4,105.2z"/>
<g xmlns="http://www.w3.org/2000/svg">
	<g>
		<path class="st1" d="M444.8,99.7c2.3,7.4,4.6,14.9,6.9,22.3c0.3,1,0.6,2.1,0.6,3.1c-0.1,3.1-3.1,5.6-6.3,6.2    c-3.2,0.6-6.5-0.3-9.6-1.1c-0.8,3.2-4.7,4.6-8.1,5.2c-14.9,2.7-30.7,0.8-44.5-5.4c5.9-8.2,10.8-17.2,14.3-26.6    c11.7,0.5,23.4,1,35.1,1.5c2.1,0.1,4.2,0.2,6.1-0.5c1.9-0.7,3.7-2.3,3.8-4.3"/>
	</g>
	<g>
		<path class="st2" d="M365.9,174.4c0,0-11.6,23.9-15.2,24.1c-25,1.4-52.3-6.5-52.3-6.5l-6.7,13.5c0,0,71.2,22.9,86.2,1.6    c15.9-22.6,15.1-26.2,15.1-26.2L365.9,174.4z"/>
	</g>
	<path class="st3" d="M373.9,364.7c13.6,60.7,103.5,117.2,103.5,117.2l15.3-18.2c0,0-72.2-62.4-75.3-90.1   c-3.1-27.7,20.9-71.2,20.9-71.2l-24.8-10.2L373.9,364.7z"/>
	<path class="st2" d="M404.3,143.3c0.4-2.5-0.6-13-0.6-13s-9.9-1-10.5-10.5c-0.6-9.5,0-31.4,0-31.4l18-8.5L431,94.4l-3,47.5   L404.3,143.3z"/>
	<path class="st1" d="M429.6,101.7c0,0-16.2-1.5-19-15.7l-17.5,15.7c0,0-5.3-10.5,4.4-20.3c9.7-9.8,16.4-7.8,20.2-7.8   c3.6,0,21.5,3.7,26.9,23.5c0.4,1.4,0.7,5,1,6.6L429.6,101.7z"/>
	<path class="st4" d="M403.8,130.3c0,0,6.6,0.1,13-4.2c0,0-2.9,7-12.8,6.6L403.8,130.3z"/>
	<path class="st5" d="M383.4,250.4c0,3.4,1.2,8.1,1.2,8.1l69.5,19.4c0,0,5-30.4-7.7-47.4c-5.8-7.8-4.5-18.7-2.1-28.1l8.2-32   l-10.9-30l-43.8,2.9c0,0-25.4-2.4-34.2,30l16.3,23.7l0.2,8.9L383.4,250.4z"/>
	<path class="st1" d="M451.2,238.5c0.8,0,13.3,27.4,1.9,43.6c-1,1.5-3.6,5.2-7.2,10.5c-16.8,25-55.3,83.9-56.6,92.5   c-1.5,10.4-32.6,120.2-32.6,120.2l-23.1-3.6l18.9-124.5l30.9-126.9L451.2,238.5z"/>
	<path class="st1" d="M411.1,84.9c0,0-3.6,6.7-2.1,11.8l-15.7,3.9C393.3,100.6,389.7,81.3,411.1,84.9z"/>
	<path class="st1" d="M445.5,102.3c0,0,2,21.8-17.1,25.8l1.3-26.4L445.5,102.3z"/>
	<path class="st6" d="M441.6,140.4"/>
	<polygon class="st5" points="366.4,166.6 355.5,192.5 380,204.4 382.3,181.7  "/>
	<polygon class="st7" points="434.3,140.9 430.2,136.1 412.3,140.4 414.5,145.6  "/>
	<polyline class="st8" points="414.5,145.6 407.4,158.8 407.2,145.6 407.9,141.5 412.8,141.5 414.5,145.6  "/>
	<polygon class="st7" points="407.2,145.6 408.2,140.4 403.8,138.7 398.7,143.2  "/>
	<g>
		<path class="st9" d="M375.8,194.5"/>
	</g>
	<g>
		<path class="st7" d="M379.9,204.8c0,0,0.4-0.6,0.3-1.7c-0.1-1.2-0.8-2.8-2.2-4.3c-1.3-1.5-3.2-3.1-3.7-5.6    c-0.2-1.2-0.2-2.5,0.3-3.8c0.4-1.3,1.3-2.4,2.5-3.2c1.1-0.8,2.4-1.2,3.7-1.3l0.4,0l0.1-0.4c0.7-5,1.6-9.4,1.9-12.6    c0.3-3.2,0-5.2-0.1-5.1c-0.1,0-0.1,1.9-0.6,5.1c-0.4,3.2-1.4,7.5-2.2,12.5l0.5-0.4c-1.5,0.1-3,0.6-4.2,1.5    c-1.4,0.9-2.4,2.3-2.9,3.7c-0.5,1.4-0.6,3-0.3,4.3c0.3,1.4,1,2.6,1.8,3.5c0.8,0.9,1.6,1.7,2.3,2.4c1.4,1.4,2.1,2.8,2.3,3.9    C380,204.2,379.8,204.8,379.9,204.8z"/>
	</g>
	<g>
		<path class="st7" d="M379.9,170.5c-0.2,0.2,0.4,1.4,1.1,2.9c0.7,1.5,1.1,2.8,1.4,2.7c0.3,0,0.4-1.5-0.4-3.1    C381.3,171.3,380.2,170.3,379.9,170.5z"/>
	</g>
	<g>
		<path class="st7" d="M354.7,192.6c-0.1,0.3,5.4,3.3,12.5,6.4c7.1,3.2,13.1,5.3,13.2,5c0.1-0.3-5.7-2.8-12.8-6    C360.6,194.9,354.8,192.3,354.7,192.6z"/>
	</g>
	<g>
		<path class="st7" d="M356.2,188.9c-0.1,0.3,4.9,3.1,11.2,6.4c6.3,3.3,11.6,5.7,11.7,5.4c0.1-0.3-4.9-3.1-11.2-6.4    C361.5,191,356.3,188.6,356.2,188.9z"/>
	</g>
	<g>
		<path class="st7" d="M389.1,171.3c0,0.3,1.5,0.6,3.3,0.7c1.9,0.1,3.4,0,3.4-0.3c0-0.3-1.5-0.6-3.3-0.7    C390.7,170.9,389.1,171,389.1,171.3z"/>
	</g>
	<g>
		<path class="st7" d="M388.5,172.5c-0.1,0.3,1.6,0.9,3.8,1.5c2.2,0.5,4,0.7,4.1,0.4c0.1-0.3-1.6-0.9-3.8-1.5    C390.4,172.4,388.5,172.2,388.5,172.5z"/>
	</g>
	<g>
		<path class="st10" d="M331.5,501.8c0,0-20.3,5.3-15.3,6.8c5.1,1.5,40.3-2.2,40.3-2.2l1.2-3.9L331.5,501.8z"/>
		<polygon class="st10" points="356.6,506.3 363.7,487.5 332.5,487.5 331.5,501.8   "/>
	</g>
	<g>
		<path class="st10" d="M477.6,483.2c0,0-5.1,19.8-1.3,16.2c3.8-3.6,17.6-35.2,17.6-35.2l-2.9-2.9L477.6,483.2z"/>
		<polygon class="st10" points="493.9,464.2 480.4,449 465.3,475.4 477.6,483.2   "/>
	</g>
	<g>
		<path class="st1" d="M409.7,78.7c0-0.1-1.9-0.2-4.8,0.6c-2.9,0.8-6.8,2.6-10,5.9c-3.2,3.3-4.8,7.3-5.4,10.1    c-0.6,2.9-0.3,4.7-0.2,4.7c0.2,0,0.2-1.8,1-4.5c0.7-2.7,2.4-6.4,5.4-9.6c3-3.2,6.7-5,9.5-5.9C407.9,79,409.7,78.9,409.7,78.7z"/>
	</g>
	<path class="st2" d="M432.2,113.7c-0.1-1.6-0.1-3.2,0.5-4.7c0.6-1.5,1.9-2.8,3.5-2.9c1.9-0.2,3.7,1.3,4,3.1   c0.3,1.8-0.8,3.7-2.4,4.6c-1.6,0.9-3.7,0.9-5.4,0.1"/>
	<path class="st11" d="M421.1,251.6c0,0-0.9-87.7,2.3-94.4c0,0,3.3-16.5,16.3-16.8l-5.8,0.4c0,0-11.8-0.8-15.2,21.7   c-3.4,22.5-3.2,89.8-3.2,89.8L421.1,251.6z"/>
	<path class="st11" d="M395.9,254.7c0,0-3.5-100.8-0.8-111.4h-3.5c0,0-3.1,8.7-2.5,32.8c0.4,14.5,0,78.6,0,78.6H395.9z"/>
	<g>
		<path class="st12" d="M370.4,208.3c0,0-14.6,7.6-17.8,7.5c-3.2-0.1-12.3-0.3-11.4,0.8c1,1,11.4,2.5,11.4,2.5L370.4,208.3z"/>
		<path class="st12" d="M371.4,224.3c0,0,69.2,15.2,78.7-9.4c10.1-26.1,10.2-19.3,10.2-19.3l-21.7-17.1c0,0-11.7,30.1-14.9,30.8    c-18.2,3.8-38.9,1.4-46.1,0.3c-0.8-0.6-1.8-1.2-2.9-2.1c-0.9-0.7-1.7-1.6-2.3-2.5c-0.7-1.1-1.6-2.6-1.7-3.6    c-0.2-1.2-2-1.6-2.7-0.6c-0.6,0.9-0.2,4.2,2.3,7.4c0,0-16.5,8.7-17.8,10.8L371.4,224.3z"/>
		<path class="st5" d="M441.6,140.4c0,0,18.4,3.4,19.2,31.5c0.8,28.1-11,49.5-11,49.5l-31.2-15.8L441.6,140.4"/>
		<g>
			<path class="st7" d="M418.6,205.8c-0.1,0.1,1.8,0.9,4.7,2.3c2.9,1.3,6.9,3.1,11.3,5.3c4.3,2.2,8.2,4.3,11,5.9     c2.8,1.6,4.5,2.6,4.6,2.4c0.1-0.1-1.5-1.3-4.2-3.1c-2.7-1.7-6.5-4-10.9-6.2c-4.4-2.2-8.5-3.9-11.5-5.1     C420.6,206.2,418.7,205.7,418.6,205.8z"/>
		</g>
		<g>
			<path class="st7" d="M419.9,203.8c0,0.1,1.8,0.8,4.7,1.9c2.9,1.1,6.9,2.7,11.3,4.8c4.3,2,8.1,4.1,10.8,5.6     c2.7,1.5,4.4,2.5,4.5,2.4c0.1-0.1-1.5-1.3-4.1-3c-2.6-1.7-6.4-3.9-10.8-5.9c-4.4-2-8.5-3.6-11.5-4.5     C421.9,204,420,203.6,419.9,203.8z"/>
		</g>
		<g>
			<path class="st7" d="M428.9,173.6c0.3,0,0.8-2.3,0.6-5.3c-0.2-3-1.2-5.2-1.5-5.1c-0.3,0.1,0.1,2.4,0.4,5.2     C428.6,171.2,428.5,173.5,428.9,173.6z"/>
		</g>
		<g>
			<path class="st7" d="M418.7,205.7c0.1,0.1,1.4-2,3-5.6c1.7-3.5,3.7-8.5,5.5-14.2c1.7-5.7,2.8-11,3.4-14.8     c0.6-3.9,0.7-6.3,0.6-6.3c-0.2,0-0.6,2.4-1.3,6.1c-0.8,3.8-2,9-3.7,14.7c-1.7,5.7-3.7,10.7-5.1,14.2     C419.5,203.4,418.5,205.6,418.7,205.7z"/>
		</g>
	</g>
</g>
<g xmlns="http://www.w3.org/2000/svg">
	<path class="st13" d="M246.8,275.1c0.9,0.8,2.5,0.3,3.2-0.8c0.7-1,0.7-2.3,0.8-3.6c0.2-13.3-0.7-26.8-3.2-39.8   c-2.2,5.5-0.6,14.1-0.6,20.1C246.9,259.1,246.9,267.1,246.8,275.1z"/>
	<path class="st14" d="M104.4,281c-0.4-1.1-0.6-2.2-0.3-3.3c0.3-1.1,1.4-1.9,2.5-1.7c0.7,0.2,1.3,0.8,1.7,1.4   c1.3,1.7,2.5,3.5,3.6,5.3c-1.9-3.1-3.1-6.7-3.3-10.3c-0.1-1,0-2.1,0.8-2.7c1.2-0.8,2.8,0.4,3.7,1.6c1.4,2,2.5,4.2,3.2,6.5   c-0.7-3.8-0.4-7.8,0.7-11.5c0.4-1.2,0.9-2.4,1.8-3.1c1.9-1.4,4.8-0.3,6.1,1.7c1.3,2,1.4,4.5,1.5,6.8c0.5-2.9,1.8-5.7,3.8-7.9   c0.5-0.6,1.2-1.2,2-1.2c1.2,0,2,1.3,2.4,2.4c1.1,2.9,1.4,6.2,0.9,9.3c0.7-3.2,2.7-6.1,5.4-7.9c0.9-0.6,1.9-1,2.9-1.1   c2.5,0,4.4,2.5,4.5,5c0.1,2.5-1,4.9-2.1,7.1c1.5-4.1,4.5-7.6,8.2-9.7c0.9-0.5,2-0.9,2.9-0.4c0.5,0.3,0.7,0.9,0.9,1.5   c0.6,2.6-0.2,5.5-2.1,7.4c1.2-1.9,2.8-4.1,5-3.8c2.2,0.2,3.4,2.9,3,5c-0.4,2.2-2,3.9-3.5,5.5c0.9-1.6,3.7-0.5,4,1.3   c0.3,1.8-0.9,3.5-2,5c-0.9,1.2-1.8,2.4-3.1,3.1c-0.9,0.5-1.8,0.7-2.8,0.9c-10.4,2.3-21.3,2.5-31.7,0.6   C116.3,292.3,107.7,290.8,104.4,281z"/>
	<path class="st5" d="M105.4,284.8c-0.2-1.1-0.2-2.3,0.3-3.3c1-1.9,3.7-2.4,5.7-1.7c2,0.7,3.6,2.3,5.1,3.9c0.4-3.2-2.5-6.5-1-9.3   c0.4-0.8,1.2-1.4,2-1.8c4.3-2.2,10.4,1.2,10.8,6c0.7-2.8,1.6-5.8,4.1-7.2c2-1.1,4.8-0.6,6.3,1.1c1.5,1.7,1.7,4.5,0.3,6.4   c2.7-2.7,6.3-4.4,10.1-4.8c0.8-0.1,1.6-0.1,2.3,0.2c2.6,1,2.7,4.7,2.3,7.5c0-2.1,2.3-3.7,4.4-3.2c2,0.5,3.5,2.5,3.7,4.5   c0.2,2.1-0.5,4.2-1.6,5.9c-0.9,1.4-2,2.7-3.6,3.2c-0.8,0.3-1.7,0.3-2.6,0.3c-9.6,0.2-19.2,0.5-28.9,0.2   C118.3,292.6,107.1,293.9,105.4,284.8z"/>
	<path class="st14" d="M286.6,250.3c0,0.1,0,0.2,0,0.4c0,12.7,0.4,25.7-5.6,36.9c-6.1,11.2-14.5,21-20.3,32.3   c-3.2,6.3-5.6,13-9.8,18.7c10.1-2.6,18.1-10.4,24-19.1C288.5,299.5,292.9,273.6,286.6,250.3z"/>
	<path class="st14" d="M244.2,237.7c-1.4,27.6-5.7,55.1-5.3,82.7c0.1,6.5,0.5,13.3,3.5,19.1c6.9-22.7,13.9-46.1,11.9-69.8   c-0.6-7.6-2.2-15-3.1-22.5c-1.2-9.9-0.5-29.7-9.3-36.5C244,219.8,244.7,228.3,244.2,237.7z"/>
	<path class="st14" d="M236.5,341.6c2.5-3.2,2.1-7.8,1.6-11.8c-4-31.2-7.9-62.4-11.9-93.6c-0.9-7-1.8-14.2-5.2-20.4   c-5.5,33.2-2.3,67.9,9.2,99.5c3.3,9.2,7.4,18.4,7.2,28.1c-5.5,2.4-12.1,0.8-17-2.7c-4.9-3.5-8.4-8.5-11.5-13.6   c-6-9.9-23.5-33.8-21.1-45.5c8.7,7,18.8,21.4,25.7,30.4C221.2,321.8,228.8,331.7,236.5,341.6z"/>
	<path class="st5" d="M220.6,215.1c1.2,40.7,3.1,82.5,19.7,119.6c8-41.9,15.8-86.4,0.9-126.4c27.9,35.7,31,88.9,7.6,127.7   c12.9-10.3,24.3-22.7,31.6-37.5c7.3-14.8,10.3-32,6.4-48c9.7,24.6,6.5,53.9-8.2,75.9c-8.5,12.7-22.1,23.5-37.4,22.9   c-16.2-0.7-29-13.7-39-26.5c-9.3-11.9-18.1-26.6-14.5-41.3c8.3,13.9,12.5,30.3,23.2,42.5c5,5.8,16.4,15.9,24.2,14.6   c-2.5-9.2-10.8-18.4-14.5-27.7c-4.1-10.1-6.8-20.8-8.2-31.6C209.6,257.7,212.2,235.3,220.6,215.1z"/>
	<path class="st10" d="M119.9,326.2h30.5c2.8,0,5.3-2.2,5.8-5.1l7.6-26.5h-57.2l7.6,26.5C114.6,324,117.1,326.2,119.9,326.2z"/>
	<rect x="185.5" y="423.4" class="st1" width="100.7" height="25.6"/>
	<polygon class="st15" points="288.5,496.5 284,496.5 284,425.6 187.7,425.6 187.7,496.5 183.3,496.5 183.3,421.2 288.5,421.2  "/>
	<path class="st16" d="M286.2,506.8c0,0-9.4,0.6,0-14.9C295.6,506.9,286.2,506.8,286.2,506.8z"/>
	<rect x="84.8" y="476.3" class="st15" width="201.5" height="4.4"/>
	<rect x="185.5" y="446.8" class="st15" width="100.7" height="4.4"/>
	<path class="st17" d="M285.7,415.3H185.5v16.3h100.2c4.5,0,8.1-3.6,8.1-8.1l0,0C293.8,418.9,290.2,415.3,285.7,415.3z"/>
	<rect x="84.8" y="334.4" class="st1" width="100.7" height="25.6"/>
	<polygon class="st15" points="187.7,496.5 183.3,496.5 183.3,336.6 87,336.6 87,496.5 82.5,496.5 82.5,332.2 187.7,332.2  "/>
	<path class="st16" d="M84.8,506.8c0,0-9.4,0.6,0-14.9C94.2,506.9,84.8,506.8,84.8,506.8z"/>
	<path class="st16" d="M185.5,506.8c0,0-9.4,0.6,0-14.9C194.9,506.9,185.5,506.8,185.5,506.8z"/>
	<rect x="84.8" y="357.8" class="st15" width="100.7" height="4.4"/>
	
		<rect x="132.9" y="349.6" transform="matrix(0.6042 -0.7968 0.7968 0.6042 -275.4223 271.0456)" class="st15" width="4.4" height="126.4"/>
	
		<rect x="71.9" y="410.6" transform="matrix(0.7968 -0.6042 0.6042 0.7968 -221.946 165.5135)" class="st15" width="126.4" height="4.4"/>
	<path class="st17" d="M185.3,324.2H85c-4.5,0-8.1,3.6-8.1,8.1l0,0c0,4.5,3.6,8.1,8.1,8.1h100.3c4.5,0,8.1-3.6,8.1-8.1l0,0   C193.4,327.8,189.8,324.2,185.3,324.2z"/>
	<path class="st10" d="M220.4,414.6h43.1c4,0,7.5-3.1,8.2-7.3l10.8-62.6h-81l10.8,62.6C213,411.5,216.4,414.6,220.4,414.6z"/>
	<path class="st1" d="M282.4,351.4h-80.9c-2.5,0-4.6-2.1-4.6-4.6v-4.3c0-2.5,2.1-4.6,4.6-4.6h80.9c2.5,0,4.6,2.1,4.6,4.6v4.3   C287,349.3,285,351.4,282.4,351.4z"/>
	<path class="st1" d="M165.7,299.6h-61.2c-1.9,0-3.5-1.6-3.5-3.5v-3.3c0-1.9,1.6-3.5,3.5-3.5h61.2c1.9,0,3.5,1.6,3.5,3.5v3.3   C169.2,298,167.6,299.6,165.7,299.6z"/>
	<g>
		<path class="st17" d="M293.2,211.2c-5.2-3.6-11.9-3.5-17.4-0.6c-7.4,4-10.8,12.1-8.6,20.2c0.3,1-0.7,1.9-1.7,1.6    c-3-0.7-5.6-2.6-8.7-3.4c-3.4-0.9-7.1-0.4-10.1,1.5c-0.1,0.6-0.1,1.2,0.1,1.8c0,0.2,0.1,0.4,0.2,0.6c1.8-0.6,3.7-1.2,5.4-0.6    c1.4,0.5,2.4,1.6,3.4,2.7c5.1,5.7,10.4,11.3,15.6,17c2.8,3,6.9,4.1,10.8,3l16.9-5.1c3.9-1.2,6.5-4.4,7.3-8.1    c0.3-1.6,0.2-3.3-0.3-5l-4.8-15.8C299.4,217.1,296.7,213.6,293.2,211.2z M280.7,212.2c9.9-3,14.7,8.4,14.7,8.4l-24.2,7.4    C271.2,228,268,216.1,280.7,212.2z"/>
		<path class="st18" d="M306.2,241.7c-0.7,3.7-3.4,6.9-7.3,8.1l-16.9,5.1c-3.9,1.2-8,0-10.8-3c-5.2-5.7-10.5-11.3-15.6-17    c-1-1.1-2-2.3-3.4-2.7c-1.7-0.6-3.7,0-5.4,0.6c-0.1-0.2-0.2-0.4-0.2-0.6c0.1-0.1,0.1-0.1,0.2-0.1c3-1.7,7.3-0.7,10.1,0.9    c3.6,2.1,6.2,5.5,8.7,8.8c2.4,3.3,5,6.8,8.4,9c1,0.7,2.2,1.2,3.4,1.5c1.5,0.3,3.1,0.1,4.6-0.1c4.5-0.8,8.9-2.2,13.2-3.5    c3.3-1,6.7-2.2,9-4.8C305.1,243.3,305.6,242.5,306.2,241.7z"/>
	</g>
	<path class="st2" d="M299.8,192.2c-3.5-0.5-7-1-10.5-1.4c-2-0.3-4-0.5-5.9-0.1c-4.7,1.1-7.4,5.9-9.6,10.2c-1.6,3.2-3,7.6-0.8,10.2   c1.9-1.2,4.3-1.9,6.4-2.5c0.6-0.2,2.3-1.3,3.1-1.6c1.8,1.7-1.1,5.9,1.9,6.7c7.9-5,16.8-11.6,17-21L299.8,192.2z"/>
</g>
</svg>