<?xml version="1.0" standalone="no"?>
<svg version="1.1" id="Layer_1" xmlns="http://www.w3.org/2000/svg" xmlns:xlink="http://www.w3.org/1999/xlink" x="0px" y="0px" width="595.279px" height="595.279px" viewBox="0 0.001 595.279 595.279" enable-background="new 0 0.001 595.279 595.279" xml:space="preserve">
<path id="color_x5F_7" fill="#1DB362" d="M166.103,197.835c-7.883-13.63-7.34-28.782,1.663-34.878
	c3.324-2.251,7.366-2.972,11.632-2.365c1.219-15.544,10.11-27.612,20.905-27.612c0.179,0,0.356,0.014,0.535,0.021
	c0.178-0.007,0.355-0.021,0.535-0.021c10.795,0,19.686,12.068,20.905,27.612c4.267-0.607,8.309,0.114,11.632,2.365
	c9.003,6.097,9.547,21.248,1.663,34.878c1.687,0.976,3.087,2.287,4.101,3.931c4.074,6.608,0.543,16.397-7.88,23.401
	c0.727,0.95,1.262,2.011,1.558,3.175c1.697,6.676-4.963,14.133-14.877,16.654c-6.147,1.563-12.094,0.856-16.136-1.494v-48.501
	c0-1.935-3-1.935-3,0v48.501c-4.042,2.35-9.989,3.057-16.136,1.494c-9.914-2.521-16.575-9.978-14.877-16.654
	c0.296-1.164,0.831-2.225,1.558-3.175c-8.424-7.004-11.954-16.793-7.88-23.401C163.015,200.122,164.416,198.811,166.103,197.835z
	 M252.421,242.071c-0.76,1.429-1.246,3.115-1.455,4.955c12.748-7.834,27.146-13.225,42.548-15.527
	c2.171-0.31,2.537,2.668,0.443,2.967c-15.653,2.34-30.247,7.95-43.053,16.131c0.196,2.654,0.905,5.479,2.176,8.254
	c4.015,8.767,12.057,13.683,17.961,10.978c1.028-0.471,1.922-1.146,2.678-1.981c7.922,6.628,17.597,8.245,23.035,3.35
	c1.353-1.218,2.331-2.739,2.951-4.468c13.975,5.006,27.933,1.938,32.063-7.442c1.525-3.463,1.51-7.333,0.225-11.188
	c14.209-3.759,23.896-14.046,22.069-24.057c-0.029-0.166-0.072-0.328-0.108-0.492c-0.023-0.166-0.041-0.333-0.071-0.499
	c-1.827-10.011-14.522-16.214-29.144-14.715c-0.159-4.059-1.51-7.686-4.16-10.388c-7.177-7.317-21.319-5.258-32.626,4.359
	c-1.191-1.398-2.643-2.476-4.338-3.138c-6.817-2.66-15.298,2.27-20.368,11.267c-1.004-0.514-2.078-0.831-3.208-0.908
	c-6.478-0.444-12.266,6.994-12.927,16.614C246.65,232.892,248.836,238.92,252.421,242.071z M70.026,248.098
	c-1.285,3.854-1.301,7.725,0.225,11.188c4.131,9.38,18.089,12.448,32.063,7.442c0.62,1.729,1.599,3.25,2.951,4.468
	c5.438,4.896,15.113,3.278,23.035-3.35c0.756,0.835,1.65,1.511,2.678,1.981c5.905,2.705,13.946-2.211,17.961-10.978
	c1.271-2.774,1.979-5.6,2.176-8.254c-12.806-8.181-27.399-13.792-43.053-16.131c-2.094-0.299-1.728-3.277,0.443-2.967
	c15.401,2.302,29.8,7.692,42.548,15.527c-0.209-1.839-0.695-3.525-1.455-4.955c3.584-3.15,5.771-9.179,5.308-15.93
	c-0.661-9.62-6.449-17.059-12.927-16.614c-1.13,0.078-2.204,0.395-3.208,0.908c-5.07-8.997-13.551-13.927-20.368-11.267
	c-1.695,0.662-3.147,1.739-4.338,3.138c-11.307-9.617-25.449-11.676-32.626-4.359c-2.65,2.702-4.001,6.329-4.16,10.388
	c-14.621-1.499-27.316,4.705-29.144,14.715c-0.03,0.167-0.048,0.333-0.071,0.499c-0.036,0.165-0.079,0.326-0.108,0.492
	C46.129,234.052,55.817,244.339,70.026,248.098z M571.933,507.295h-84.98h-12.825h-94.975H349.62H39.246
	c-2.012,0-3.643,1.631-3.643,3.643s1.631,3.643,3.643,3.643h532.688c2.012,0,3.643-1.631,3.643-3.643
	S573.945,507.295,571.933,507.295z"></path>
<path id="color_x5F_6" fill="#BFBFBF" d="M285.77,315.248c0,0.718-0.583,1.301-1.301,1.301s-1.301-0.583-1.301-1.301v-8.335
	c0-0.719,0.583-1.301,1.301-1.301s1.301,0.582,1.301,1.301V315.248z M284.469,335.824c-0.718,0-1.301,0.582-1.301,1.301v8.335
	c0,0.719,0.583,1.301,1.301,1.301s1.301-0.582,1.301-1.301v-8.335C285.77,336.406,285.188,335.824,284.469,335.824z
	 M274.832,326.186c0-0.719-0.583-1.301-1.301-1.301h-8.334c-0.718,0-1.301,0.582-1.301,1.301s0.583,1.301,1.301,1.301h8.334
	C274.249,327.487,274.832,326.905,274.832,326.186z M305.044,326.186c0-0.719-0.583-1.301-1.301-1.301h-8.334
	c-0.719,0-1.301,0.582-1.301,1.301s0.583,1.301,1.301,1.301h8.334C304.461,327.487,305.044,326.905,305.044,326.186z
	 M277.655,317.532l-5.894-5.894c-0.508-0.509-1.332-0.509-1.84,0c-0.508,0.508-0.508,1.331,0,1.839l5.894,5.895
	c0.254,0.254,0.587,0.381,0.919,0.381c0.333,0,0.666-0.127,0.92-0.381C278.163,318.863,278.163,318.04,277.655,317.532z
	 M291.284,334.841l5.894,5.894c0.254,0.255,0.587,0.382,0.92,0.382s0.666-0.127,0.919-0.382c0.509-0.508,0.509-1.331,0-1.839
	l-5.894-5.895c-0.508-0.508-1.331-0.508-1.839,0C290.776,333.51,290.776,334.333,291.284,334.841z M270.841,341.116
	c0.333,0,0.666-0.127,0.92-0.382l5.894-5.894c0.508-0.508,0.508-1.331,0-1.84c-0.508-0.508-1.332-0.508-1.839,0l-5.894,5.895
	c-0.508,0.508-0.508,1.331,0,1.839C270.175,340.989,270.508,341.116,270.841,341.116z M292.204,319.753
	c0.333,0,0.666-0.127,0.919-0.381l5.894-5.895c0.509-0.508,0.509-1.331,0-1.839c-0.508-0.509-1.331-0.509-1.839,0l-5.894,5.894
	c-0.508,0.508-0.508,1.331,0,1.84C291.538,319.626,291.871,319.753,292.204,319.753z M106.671,398.287
	c0.718,0,1.301-0.583,1.301-1.301v-8.335c0-0.719-0.583-1.301-1.301-1.301s-1.301,0.582-1.301,1.301v8.335
	C105.37,397.704,105.953,398.287,106.671,398.287z M105.37,427.198c0,0.719,0.583,1.301,1.301,1.301s1.301-0.582,1.301-1.301v-8.335
	c0-0.719-0.583-1.301-1.301-1.301s-1.301,0.582-1.301,1.301V427.198z M86.097,407.925c0,0.719,0.583,1.301,1.301,1.301h8.334
	c0.719,0,1.301-0.582,1.301-1.301s-0.583-1.301-1.301-1.301h-8.334C86.679,406.624,86.097,407.206,86.097,407.925z M116.309,407.925
	c0,0.719,0.583,1.301,1.301,1.301h8.334c0.718,0,1.301-0.582,1.301-1.301s-0.583-1.301-1.301-1.301h-8.334
	C116.891,406.624,116.309,407.206,116.309,407.925z M99.856,399.27l-5.894-5.894c-0.508-0.509-1.332-0.509-1.84,0
	c-0.508,0.508-0.508,1.331,0,1.839l5.894,5.895c0.254,0.254,0.587,0.381,0.919,0.381c0.333,0,0.666-0.127,0.92-0.381
	C100.365,400.601,100.365,399.778,99.856,399.27z M113.486,416.579l5.894,5.894c0.254,0.255,0.587,0.382,0.92,0.382
	s0.666-0.127,0.919-0.382c0.509-0.508,0.509-1.331,0-1.839l-5.894-5.895c-0.508-0.508-1.331-0.508-1.839,0
	C112.978,415.248,112.978,416.071,113.486,416.579z M98.017,414.739l-5.894,5.895c-0.508,0.508-0.508,1.331,0,1.839
	c0.254,0.255,0.587,0.382,0.92,0.382s0.666-0.127,0.92-0.382l5.894-5.894c0.508-0.508,0.508-1.331,0-1.84
	C99.348,414.231,98.525,414.231,98.017,414.739z M119.38,393.377l-5.894,5.894c-0.508,0.508-0.508,1.331,0,1.84
	c0.254,0.254,0.587,0.381,0.92,0.381c0.333,0,0.666-0.127,0.919-0.381l5.894-5.895c0.509-0.508,0.509-1.331,0-1.839
	C120.711,392.868,119.888,392.868,119.38,393.377z M468.103,310.115c0.719,0,1.301-0.583,1.301-1.301v-8.335
	c0-0.719-0.582-1.301-1.301-1.301c-0.718,0-1.301,0.582-1.301,1.301v8.335C466.802,309.532,467.385,310.115,468.103,310.115z
	 M468.103,340.327c0.719,0,1.301-0.582,1.301-1.301v-8.335c0-0.719-0.582-1.301-1.301-1.301c-0.718,0-1.301,0.582-1.301,1.301v8.335
	C466.802,339.745,467.385,340.327,468.103,340.327z M448.83,321.053h8.335c0.719,0,1.302-0.582,1.302-1.301
	s-0.583-1.301-1.302-1.301h-8.335c-0.718,0-1.301,0.582-1.301,1.301S448.112,321.053,448.83,321.053z M477.742,319.753
	c0,0.719,0.582,1.301,1.301,1.301h8.334c0.719,0,1.301-0.582,1.301-1.301s-0.582-1.301-1.301-1.301h-8.334
	C478.324,318.452,477.742,319.034,477.742,319.753z M459.449,312.938c0.254,0.254,0.588,0.381,0.92,0.381
	c0.333,0,0.666-0.127,0.92-0.381c0.508-0.509,0.508-1.332,0-1.84l-5.894-5.894c-0.509-0.509-1.331-0.509-1.84,0
	c-0.509,0.508-0.509,1.331,0,1.839L459.449,312.938z M480.812,334.301c0.254,0.255,0.587,0.382,0.92,0.382s0.666-0.127,0.92-0.382
	c0.508-0.508,0.508-1.331,0-1.839l-5.895-5.895c-0.508-0.508-1.33-0.508-1.839,0c-0.509,0.509-0.509,1.332,0,1.84L480.812,334.301z
	 M459.449,326.567l-5.894,5.895c-0.509,0.508-0.509,1.331,0,1.839c0.254,0.255,0.587,0.382,0.92,0.382s0.665-0.127,0.92-0.382
	l5.894-5.894c0.508-0.508,0.508-1.331,0-1.84C460.781,326.059,459.957,326.059,459.449,326.567z M475.839,313.319
	c0.333,0,0.665-0.127,0.919-0.381l5.895-5.895c0.508-0.508,0.508-1.331,0-1.839c-0.508-0.509-1.332-0.509-1.84,0l-5.894,5.894
	c-0.509,0.508-0.509,1.331,0,1.84C475.173,313.192,475.506,313.319,475.839,313.319z"></path>
<path id="color_x5F_5" fill="#FFD2BB" d="M344.791,405.964c0.88-0.02,1.725-0.056,2.528-0.108
	c1.283-0.084,2.462-0.21,3.516-0.378c1.079-0.172,2.026-0.39,2.812-0.656c0.423-0.144,0.813-0.401,1.165-0.749
	c0.242-0.316,0.458-0.661,0.657-1.02c0.062-0.111,0.114-0.229,0.172-0.343c0.13-0.26,0.252-0.526,0.36-0.802
	c0.053-0.136,0.103-0.272,0.15-0.411c0.098-0.284,0.183-0.575,0.258-0.872c0.032-0.128,0.068-0.254,0.097-0.385
	c0.186-0.856,0.277-1.752,0.271-2.661c-0.001-0.133-0.011-0.267-0.016-0.399c-0.013-0.328-0.035-0.656-0.073-0.984
	c-0.017-0.151-0.038-0.303-0.061-0.454c-0.05-0.327-0.114-0.651-0.189-0.975c-0.031-0.133-0.058-0.268-0.094-0.399
	c-0.12-0.448-0.26-0.893-0.432-1.325c-0.005-0.012-0.01-0.022-0.015-0.035c-0.021-0.055-0.052-0.107-0.074-0.162
	c-0.13-0.308-0.265-0.613-0.421-0.908c-0.007-0.014-0.014-0.026-0.021-0.039c-0.187-0.349-0.391-0.689-0.615-1.018
	c-0.007-0.009-0.014-0.019-0.02-0.027c-0.226-0.328-0.471-0.645-0.735-0.946c-0.018-0.019-0.035-0.036-0.053-0.055
	c-0.224-0.253-0.467-0.491-0.719-0.722c-0.037-0.035-0.069-0.074-0.107-0.107c-0.045-0.04-0.095-0.074-0.141-0.113
	c-0.095-0.081-0.2-0.153-0.299-0.231c-0.187-0.15-0.368-0.304-0.569-0.44c-0.364-0.245-0.746-0.476-1.158-0.679
	c-0.048-0.023-0.097-0.045-0.145-0.067c-0.408-0.195-0.833-0.373-1.286-0.521c-0.741-0.242-1.879-0.401-3.271-0.505
	c-0.001-0.001,0-0.001,0-0.002c-0.001,0-0.002,0-0.003,0c-1.373-0.101-3.006-0.141-4.78-0.137c-1.004,0.002-2.052,0.018-3.127,0.044
	c-9.133,0.225-20.076,1.243-20.076,1.243s-4.817,0.054-10.013,0.558c0,0-0.698-1.064-1.644-2.489
	c-1.832-2.764-4.608-6.91-5.137-7.466c-0.507-0.533-1.614-0.658-2.902-0.577c-1.537,0.096-3.326,0.483-4.672,0.828
	c-1.187,0.304-2.029,0.573-2.029,0.573s-2.32,0.127-4.29,1.11c-1.621,0.81-3.006,2.198-2.655,4.59
	c0.539,3.663,2.684,6.689,5.33,8.854c3.198,2.616,7.129,3.971,9.868,3.617c1.466,0.869,3.225,1.682,5.189,2.438
	c0.575,0.221,1.162,0.438,1.771,0.65c1.517,0.527,3.143,1.019,4.833,1.479c1.426,0.389,2.906,0.751,4.418,1.091
	c2.154,0.483,4.377,0.915,6.622,1.293C330.66,405.456,338.594,406.108,344.791,405.964z M303.668,388.744L303.668,388.744
	c0.579-0.094,1.172-0.177,1.769-0.255l0.001,0.001C304.84,388.568,304.247,388.651,303.668,388.744z M402.269,327.961l-12.116-4.904
	c-0.008,0.035-0.016,0.076-0.023,0.109c-0.17,0.66-0.37,1.3-0.59,1.93c-0.162,0.47-0.359,0.914-0.549,1.364
	c-0.336,0.799-0.706,1.567-1.108,2.298c-0.072,0.132-0.138,0.273-0.214,0.402c-0.011,0.028-0.029,0.06-0.05,0.09
	c-1.54,2.63-3.512,4.718-5.672,6.069c-1.058,0.681-2.158,1.17-3.278,1.46c-0.09,0.028-0.17,0.049-0.26,0.068
	c0.001-0.001,0.001-0.002,0.002-0.002h-0.001c0.568-0.51,1.05-1.1,1.42-1.77c0.389-0.701,0.647-1.481,0.749-2.311
	c0.26-1.899-0.57-3.8-2.479-4.38c-2.409-0.732-4.915,0.778-6.01,2.89c-0.073,0.141-0.14,0.283-0.199,0.429
	c-0.071,0.171-0.116,0.349-0.171,0.524c-0.044,0.139-0.101,0.273-0.135,0.414c-0.063,0.26-0.1,0.525-0.131,0.792
	c-0.007,0.06-0.023,0.117-0.029,0.177c-0.062,0.655-0.033,1.323,0.066,1.982c-0.001-0.001-0.002-0.001-0.002-0.002
	c0,0.001,0,0.003,0,0.004c-2.25-1.522-4.312-4.901-5.367-8.43l-7.92,5.821c0.468,1.545,1.116,3.078,1.983,4.556
	c0.108,0.181,0.209,0.363,0.313,0.545c-0.066,0.351-0.104,0.711-0.099,1.084c0.034,2.558-0.979,5.022,1.181,4.996
	c0.482-0.008,1.088-0.144,1.729-0.373c2.896,6.435,4.985,11.606,10.491,8.373c2.455-1.441,5.271-4.37,7.729-7.944l4.117,1.102
	L402.269,327.961z M365.065,337.446c-0.477,0.271-1.206-0.145-1.639-0.916c-0.434-0.775-0.395-1.627,0.077-1.896
	c0.477-0.271,1.209,0.142,1.639,0.915C365.576,336.327,365.537,337.177,365.065,337.446z M392.226,397.748
	c-2.415,0.547-4.725,1.186-6.904,1.919c0.369-0.282,0.707-0.514,1.004-0.677C388.322,397.887,390.334,397.558,392.226,397.748z
	 M366.545,439.398c-2.307,1.186-7.138,3.523-7.578,3.92c-4.302,1.912-13.761,4.544-18.348,1.372
	c-1.313-0.908-1.781-2.073-1.808-3.26c-0.062-2.792,2.377-5.707,2.377-5.707s1.108-1.324,2.387-2.902
	c0.001,0,0.002-0.002,0.002-0.002c1.385-1.71,2.968-3.718,3.565-4.679l0.213,0.273c0.934-1.073,1.718-1.919,1.89-1.921
	c1.626-0.016,2.976,2.213,4.717,4.524c0.707,0.939,1.478,1.893,2.36,2.715c3.686-5.479,9.147-11.455,9.147-11.455
	s0.368-0.477,1-1.281C366.004,426.111,366.105,432.522,366.545,439.398z"></path>
<path id="color_x5F_4" fill="#8fbc8f" d="M230.349,413.576l-0.354-0.083l0.265,0.586c-0.766,4.34-1.581,8.716-2.44,13.073
	c-15.118,8.053-27.098,20.389-34.757,35.064c-4.036,0.614-7.924,1.688-11.619,3.17C169.842,427.506,162,366.248,162,352.001
	c0-20.331,15.967-36.934,36.046-37.95c0.442,1.594,0.862,3.199,1.235,4.823c0.017,0.074,0.042,0.137,0.065,0.204
	c0.065,1.463,1.886,1.753,2.654,0.872c0.342-0.198,0.622-0.55,0.739-1.076c0.361-1.572,0.764-3.127,1.19-4.671
	C223.07,316.17,238,332.342,238,352.001C238,360.586,235.151,386.248,230.349,413.576z M218.77,464.69
	c2.848-9.408,5.465-20.207,7.793-31.35c-7.916,8.404-13.825,18.271-17.53,28.883C212.389,462.737,215.643,463.57,218.77,464.69z"></path>
<path id="color_x5F_3" fill="#6b8e23" d="M363.427,336.53c-0.434-0.775-0.395-1.627,0.077-1.896
	c0.477-0.271,1.209,0.142,1.639,0.915c0.434,0.777,0.395,1.627-0.077,1.896C364.589,337.717,363.859,337.302,363.427,336.53z
	 M366.123,327.165c1.057,3.526,3.116,6.904,5.366,8.427c0,0.001,0.001,0.001,0.002,0.002c-0.1-0.659-0.128-1.327-0.066-1.982
	c0.006-0.06,0.022-0.117,0.029-0.177c0.031-0.267,0.068-0.532,0.131-0.792c0.034-0.141,0.091-0.275,0.135-0.414
	c0.055-0.176,0.1-0.354,0.171-0.524c0.06-0.146,0.126-0.288,0.199-0.429c1.095-2.112,3.601-3.624,6.011-2.892
	c1.909,0.58,2.739,2.481,2.479,4.38c-0.102,0.831-0.36,1.611-0.75,2.313c-0.37,0.67-0.852,1.26-1.42,1.77h0.001
	c0.09-0.019,0.169-0.04,0.259-0.068c1.12-0.29,2.22-0.779,3.278-1.46c2.16-1.351,4.132-3.439,5.672-6.069
	c0.021-0.03,0.039-0.062,0.05-0.09c0.075-0.128,0.141-0.269,0.213-0.4c0.402-0.73,0.772-1.499,1.108-2.298
	c0.189-0.45,0.387-0.895,0.549-1.364c0.22-0.63,0.42-1.27,0.59-1.93c0.008-0.033,0.016-0.074,0.023-0.109
	c0.001-0.001,0.001-0.001,0.001-0.002c0.605-2.47,0.647-8.17-1.401-12.521L366.123,327.165z M569.4,502.786l-7.557-29.658
	l-13.05,9.751c10.763,10.912,20.165,19.521,20.617,19.942C569.427,502.827,569.4,502.786,569.4,502.786z M349.62,507.295h29.533
	l-5.892-14.396C361.932,499.422,352.483,505.452,349.62,507.295z M303.668,388.743L303.668,388.743
	c0.579-0.092,1.172-0.175,1.77-0.253l-0.001-0.001C304.84,388.567,304.247,388.65,303.668,388.743z M218.77,464.69
	c-3.126-1.12-6.381-1.953-9.737-2.467c-1.445,4.139-2.568,8.384-3.333,12.703h-16.971c-0.48-0.265-0.797-0.417-0.894-0.415
	c1.411-4.243,3.169-8.351,5.228-12.295c-4.036,0.614-7.924,1.688-11.619,3.17c-17.17,6.881-30.106,22.533-33.649,41.643h106.463
	C250.59,487.243,236.851,471.165,218.77,464.69z M293.513,231.498c-15.401,2.302-29.8,7.692-42.548,15.527
	c-22.782,14.001-40.258,35.844-48.627,62.022v-65.546v-48.501c0-1.935-3-1.935-3,0v48.501v64.514
	c-8.496-25.719-25.803-47.174-48.284-60.99c-12.748-7.834-27.146-13.225-42.548-15.527c-2.171-0.31-2.537,2.668-0.443,2.967
	c15.653,2.34,30.247,7.95,43.053,16.131c22.545,14.402,39.528,36.794,46.93,63.454c0.442,1.594,0.862,3.199,1.235,4.823
	c0.017,0.074,0.042,0.137,0.065,0.204c0.065,1.463,1.886,1.753,2.654,0.872c0.342-0.198,0.622-0.55,0.739-1.076
	c0.361-1.572,0.764-3.127,1.19-4.671c7.379-26.727,24.387-49.176,46.975-63.606c12.806-8.181,27.399-13.792,43.053-16.131
	C296.051,234.166,295.684,231.188,293.513,231.498z"></path>
<path id="color_x5F_2" fill="#FBC02D" d="M308.265,388.171c0,0-0.698-1.064-1.644-2.489l11.707-5.664
	c8.559-4.14,18.59-1.291,23.152,6.309c-1.004,0.002-2.052,0.018-3.127,0.044c-9.133,0.225-20.076,1.243-20.076,1.243
	S313.461,387.667,308.265,388.171z M350.835,405.477c-1.054,0.168-2.232,0.294-3.516,0.378c-0.804,0.053-1.648,0.089-2.528,0.108
	c-6.197,0.145-14.131-0.508-21.823-1.802c-2.245-0.378-4.468-0.81-6.622-1.293c-1.512-0.34-2.992-0.702-4.418-1.091
	c-1.69-0.46-3.316-0.951-4.833-1.479c-0.609-0.212-1.196-0.43-1.771-0.65c-1.965-0.757-3.724-1.569-5.189-2.438
	c-2.739,0.354-6.67-1.001-9.868-3.617l-6.353,3.073c-4.912,2.376-8.307,6.567-9.731,11.271l-0.009-0.014l-31.083,8.634
	l-12.741-2.982l-0.354-0.083l0.265,0.586l8.831,19.504l3.904-8.149l37.691,6.289l7.317,15.126
	c4.149,8.576,14.836,11.985,23.87,7.614l26.938-13.032c-0.062-2.792,2.377-5.707,2.377-5.707s1.108-1.324,2.387-2.902
	c0.001,0,0.002-0.002,0.002-0.002c1.385-1.71,2.968-3.718,3.565-4.679l0.213,0.273c0.934-1.073,1.718-1.919,1.89-1.921
	c1.626-0.016,2.976,2.213,4.717,4.524c3.157-4.942,3.819-11.181,1.176-16.646L350.835,405.477z M402.437,327.786l-0.168,0.175
	l-16.623,17.364l-39.382,41.137v0.001c0,0.001-0.001,0.001,0,0.002c1.393,0.104,2.53,0.263,3.271,0.505
	c0.453,0.148,0.878,0.326,1.286,0.521c0.048,0.022,0.097,0.044,0.145,0.067c0.343,0.169,0.654,0.365,0.963,0.564
	c0.265,0.176,0.52,0.361,0.765,0.555c0.095,0.077,0.198,0.146,0.291,0.226c0.003,0.002,0.005,0.004,0.008,0.006
	c0.045,0.039,0.097,0.073,0.141,0.113c0.001,0,0.001,0,0.001,0c0.038,0.034,0.069,0.072,0.106,0.107
	c0.271,0.248,0.532,0.504,0.771,0.776l0.001,0.001c0.262,0.299,0.503,0.611,0.727,0.935c0.002,0.004,0.005,0.007,0.008,0.011
	c0.006,0.01,0.014,0.019,0.02,0.027c0.001,0.001,0.001,0.002,0.002,0.003c0.222,0.325,0.425,0.662,0.609,1.008
	c0.001,0.002,0.002,0.005,0.004,0.007c0.164,0.309,0.307,0.626,0.441,0.947c0.022,0.055,0.052,0.106,0.074,0.161v0.001
	c0.179,0.444,0.323,0.9,0.446,1.36c0.036,0.133,0.063,0.266,0.094,0.399c0.075,0.323,0.14,0.647,0.189,0.975
	c0.022,0.151,0.043,0.303,0.061,0.454c0.038,0.329,0.061,0.656,0.073,0.984c0.005,0.134,0.015,0.266,0.016,0.399
	c0.006,0.909-0.086,1.805-0.271,2.661c-0.028,0.131-0.064,0.256-0.097,0.385c-0.075,0.297-0.16,0.588-0.258,0.872
	c-0.048,0.14-0.098,0.275-0.15,0.411c-0.108,0.276-0.23,0.542-0.36,0.802c-0.058,0.114-0.11,0.231-0.172,0.343
	c-0.199,0.358-0.414,0.703-0.657,1.02c-0.004,0.005-0.008,0.012-0.012,0.018c3.272,0,39.218-27.089,39.8-27.688
	c0.131,0.132,0.265,0.26,0.396,0.391c3.915-3.381,7.318-7.343,10.053-11.751c13.145,10.464,31.244,19.378,42.48,19.378
	c7.676,0,14.768-1.97,20.529-5.3c0.604,0.578,1.196,1.147,1.778,1.705c-20.026-19.209-53.314-50.949-56.351-52.627
	C405.756,323.926,402.437,327.786,402.437,327.786z M476.461,387.185c0.817,0.786,1.588,1.526,2.305,2.217
	C478.049,388.712,477.279,387.971,476.461,387.185z M347.529,340.831l10.673-7.844l7.92-5.821l0.001-0.001l22.63-16.632l6.535-4.803
	c2.747-2.019,4.075-4.877,2.967-6.385s-4.233-1.094-6.979,0.925l-6.37,4.682c-0.627-0.629-1.293-1.219-1.999-1.759
	c-1.005-0.769-2.084-1.444-3.227-2.011c-2.666-1.322-5.674-2.063-8.845-2.063c-7.692,0-14.365,4.354-17.702,10.746
	c-1.46,2.783-2.282,5.952-2.282,9.317c0,2.127,1.289,5.978,2.475,8.979l-9.809,7.209c-2.748,2.019-4.076,4.877-2.967,6.385
	C341.657,343.263,344.782,342.849,347.529,340.831z"></path>
<path id="color_x5F_1" fill="#0984E3" d="M548.794,482.879L526.088,494.1c-12.971,5.33-28.145,10.96-39.135,13.194h-12.825
	c-13.432-8.892-20.349-72.063-20.349-72.063s-36.525-4.24-62.018-10.348c-0.738,11.926-6.438,37.38-6.438,37.38l-0.741,1.965
	l-3.553,8.997l-7.769,19.672c-0.646-4.787-2.691-19.745-4.365-32.87l0.05,0.054c-0.967-7.915-2.281-18.82-2.4-20.684
	c-0.439-6.876-0.541-13.287-0.075-18.402c0.239-2.623,0.626-4.906,1.195-6.732c-0.085-0.446-0.058-0.896,0.128-1.346
	c2.465-6.024,8.967-10.368,17.529-13.25c2.18-0.733,4.489-1.372,6.904-1.919c8.888-2.014,19.148-2.793,29.179-2.503
	c-1.032-0.508-15.623-7.776-26.409-18.452l-0.001-0.001c3.915-3.381,7.318-7.343,10.053-11.751
	c13.145,10.464,31.244,19.378,42.48,19.378c7.676,0,14.768-1.97,20.529-5.3c0.604,0.578,1.196,1.147,1.778,1.705
	c0.008,0.008,0.016,0.016,0.023,0.022c1.69,1.622,3.282,3.149,4.757,4.566c0.15,0.145,0.298,0.286,0.445,0.428
	c0.305,0.293,0.604,0.58,0.897,0.862c0.168,0.161,0.337,0.324,0.501,0.481c0.817,0.786,1.588,1.526,2.305,2.217
	c1.781,1.713,3.221,3.099,4.262,4.103c0.638,0.614,1.13,1.089,1.438,1.386c0.258,0.249,0.399,0.385,0.399,0.385
	c0.208,0.258,15.873,18.125,8.498,58.808c-0.122,0.084-1.431,13.6-4.108,27.107c12.795-1.521,30.54-2.156,30.54-2.156
	L548.794,482.879z M232.5,424.824c-1.595,0.726-3.148,1.512-4.68,2.328c-15.118,8.053-27.098,20.389-34.757,35.064
	c-2.059,3.944-3.816,8.052-5.228,12.295c0.097-0.002,0.414,0.15,0.894,0.415H205.7c0.764-4.319,1.887-8.564,3.333-12.703
	c3.706-10.611,9.615-20.479,17.53-28.883c2.144-2.276,4.418-4.456,6.853-6.502C234.838,426.201,233.975,424.165,232.5,424.824z"></path>
</svg>