<svg xmlns="http://www.w3.org/2000/svg" xmlns:xlink="http://www.w3.org/1999/xlink" viewBox="0 0 625.02 625.02"><defs xmlns="http://www.w3.org/2000/svg"><style>.cls-1{opacity:0.15;fill:url(#linear-gradient);}.cls-2{fill:#2a94f4;}</style><linearGradient id="linear-gradient" x1="557.58" y1="663.96" x2="255.44" y2="140.64" gradientUnits="userSpaceOnUse"><stop offset="0" stop-color="#43aced" stop-opacity="0"/><stop offset="1" stop-color="#231f20"/></linearGradient></defs><title xmlns="http://www.w3.org/2000/svg">Multimedia Icons</title><g xmlns="http://www.w3.org/2000/svg" id="Layer_2" data-name="Layer 2"><path class="cls-1" d="M397.58,177.4,625,382.72V625H403.4L168.53,388.15s-43-87.55-21.47-146.36S260.27,95.84,397.58,177.4"/></g><g xmlns="http://www.w3.org/2000/svg" id="Layer_1" data-name="Layer 1"><path class="cls-2" d="M492,476.53l-88.77-88.77a155.16,155.16,0,0,0,38.23-102.14c0-85.94-69.9-155.76-155.76-155.76S129.9,199.76,129.9,285.62s69.9,155.76,155.76,155.76A155.16,155.16,0,0,0,387.8,403.15l88.77,88.77a11,11,0,0,0,7.69,3.24,10.67,10.67,0,0,0,7.7-3.24,11,11,0,0,0,0-15.39ZM151.69,285.62c0-73.87,60.1-133.89,133.89-133.89s133.89,60.1,133.89,133.89-60,134-133.89,134-133.89-60.1-133.89-134Zm0,0"/></g></svg>