<?xml version="1.0" standalone="no"?><svg xmlns="http://www.w3.org/2000/svg" viewBox="0 0 1440 320"><path fill="#8FBC8F" fill-opacity="0.8" d="M0,192L34.3,170.7C68.6,149,137,107,206,122.7C274.3,139,343,213,411,234.7C480,256,549,224,617,229.3C685.7,235,754,277,823,293.3C891.4,309,960,299,1029,250.7C1097.1,203,1166,117,1234,74.7C1302.9,32,1371,32,1406,32L1440,32L1440,320L1405.7,320C1371.4,320,1303,320,1234,320C1165.7,320,1097,320,1029,320C960,320,891,320,823,320C754.3,320,686,320,617,320C548.6,320,480,320,411,320C342.9,320,274,320,206,320C137.1,320,69,320,34,320L0,320Z"></path></svg>